<svg id="Layer_1" enable-background="new 0 0 1024 1024" viewBox="0 0 1024 1024" xmlns="http://www.w3.org/2000/svg"><g id="XMLID_320_"><path id="XMLID_684_" d="m933.5 337.4v349.2l-246.9 246.9h-349.2l-246.9-246.9v-349.2l246.9-246.9h349.2z" fill="#f72f48"/><path id="XMLID_1650_" d="m857.4 368.9v286.2l-202.3 202.3h-286.2l-202.3-202.3v-286.2l202.3-202.3h286.2z" fill="#ecedef"/><path id="XMLID_1643_" d="m825.4 344.9-480.5 488.5-178.3-178.3v-286.2l202.3-202.3h278.2z" fill="#fff"/><g fill="#3ce570"><path id="XMLID_333_" d="m484 654.7h-40v-228.3c0-20.5-16.6-37.1-37.1-37.1h-72.4c-20.5 0-37.1 16.6-37.1 37.1v228.4h-40v-228.4c0-42.5 34.6-77.1 77.1-77.1h72.4c42.5 0 77.1 34.6 77.1 77.1z"/><path id="XMLID_332_" d="m629.1 661h-89.1v-311.7h89.1c75.9 0 137.6 61.7 137.6 137.6v36.5c0 75.9-61.8 137.6-137.6 137.6zm-49.1-40h49.1c53.8 0 97.6-43.8 97.6-97.6v-36.5c0-53.8-43.8-97.6-97.6-97.6h-49.1z"/><path id="XMLID_665_" d="m277.3 492h186.6v40h-186.6z"/></g><path id="XMLID_334_" d="m492 166.6h40v690.8h-40z" fill="#f72f48" transform="matrix(.707 .707 -.707 .707 512.012 -212.075)"/></g></svg>